<svg width="1024" height="1024" xmlns="http://www.w3.org/2000/svg">
  <rect width="100%" height="100%" fill="#1a2744"/>

  <!-- Left page -->
  <polygon points="492,250 272,270 272,590 492,570" fill="#f5f0e1"/>

  <!-- Right page -->
  <polygon points="532,250 752,270 752,590 532,570" fill="#f5f0e1"/>

  <!-- Spine -->
  <rect x="492" y="235" width="40" height="350" fill="#d4af37" rx="3"/>

  <!-- Text lines left -->
  <line x1="310" y1="320" x2="465" y2="312" stroke="#c9c4b8" stroke-width="5" stroke-linecap="round"/>
  <line x1="310" y1="375" x2="465" y2="367" stroke="#c9c4b8" stroke-width="5" stroke-linecap="round"/>
  <line x1="310" y1="430" x2="465" y2="422" stroke="#c9c4b8" stroke-width="5" stroke-linecap="round"/>
  <line x1="310" y1="485" x2="465" y2="477" stroke="#c9c4b8" stroke-width="5" stroke-linecap="round"/>
  <line x1="310" y1="540" x2="420" y2="534" stroke="#c9c4b8" stroke-width="5" stroke-linecap="round"/>

  <!-- Text lines right -->
  <line x1="559" y1="312" x2="714" y2="320" stroke="#c9c4b8" stroke-width="5" stroke-linecap="round"/>
  <line x1="559" y1="367" x2="714" y2="375" stroke="#c9c4b8" stroke-width="5" stroke-linecap="round"/>
  <line x1="559" y1="422" x2="714" y2="430" stroke="#c9c4b8" stroke-width="5" stroke-linecap="round"/>
  <line x1="559" y1="477" x2="714" y2="485" stroke="#c9c4b8" stroke-width="5" stroke-linecap="round"/>
  <line x1="559" y1="534" x2="660" y2="540" stroke="#c9c4b8" stroke-width="5" stroke-linecap="round"/>
</svg>
